<?xml version="1.0" encoding="UTF-8"?>
<svg version="1.1" xmlns="http://www.w3.org/2000/svg" width="92" height="92">
<path d="M0 0 C30.36 0 60.72 0 92 0 C92 30.36 92 60.72 92 92 C61.64 92 31.28 92 0 92 C0 61.64 0 31.28 0 0 Z " fill="#FAFBFB" transform="translate(0,0)"/>
<path d="M0 0 C30.36 0 60.72 0 92 0 C92 24.75 92 49.5 92 75 C90.515 74.505 90.515 74.505 89 74 C89 73.34 89 72.68 89 72 C86.36 72 83.72 72 81 72 C80.67 72.66 80.34 73.32 80 74 C76.33333333 74 72.66666667 74 69 74 C69 73.34 69 72.68 69 72 C68.34 72 67.68 72 67 72 C66.896875 72.639375 66.79375 73.27875 66.6875 73.9375 C66.460625 74.618125 66.23375 75.29875 66 76 C64.515 76.495 64.515 76.495 63 77 C63 75.68 63 74.36 63 73 C59.49223216 71.39644899 56.85645121 70.77963136 53 71 C53 71.99 53 72.98 53 74 C52.01 74 51.02 74 50 74 C49.67 74.66 49.34 75.32 49 76 C49 75.01 49 74.02 49 73 C47.02 73 45.04 73 43 73 C43.33 72.34 43.66 71.68 44 71 C45.32 71 46.64 71 48 71 C48 70.34 48 69.68 48 69 C49.485 68.47212891 49.485 68.47212891 51 67.93359375 C61.21420653 64.168083 69.66676383 60.07389055 75 50 C78.3783145 41.98564353 79.84856061 32.64971338 77.09765625 24.2421875 C76.40454777 22.70797584 75.66838347 21.19187045 74.875 19.70703125 C74 18 74 18 74 16 C73.34 16 72.68 16 72 16 C71.505 14.515 71.505 14.515 71 13 C62.77396208 5.68796629 53.69760403 2.29656926 42.73046875 2.65234375 C38.05170678 3.24806595 34.15307912 4.81271166 30 7 C29.2884375 7.36609375 28.576875 7.7321875 27.84375 8.109375 C20.92707332 12.41899663 17.56694362 19.53323695 15 27 C14.36136562 31.46053935 14.45257648 35.53639286 15 40 C15.08636719 40.75023437 15.17273437 41.50046875 15.26171875 42.2734375 C17.28919278 53.30464027 25.60904697 59.58563038 34.2734375 65.5703125 C34.84320313 66.04210937 35.41296875 66.51390625 36 67 C36 67.66 36 68.32 36 69 C36.99 69.495 36.99 69.495 38 70 C37.34 70 36.68 70 36 70 C35.505 71.98 35.505 71.98 35 74 C34.071875 73.7215625 34.071875 73.7215625 33.125 73.4375 C30.95839822 72.76313824 30.95839822 72.76313824 29 74 C26.875 73.0625 26.875 73.0625 25 72 C25 72.66 25 73.32 25 74 C24.01 74.495 24.01 74.495 23 75 C22.34786708 77.02463255 22.34786708 77.02463255 22 79 C20.68 79 19.36 79 18 79 C18 77.68 18 76.36 18 75 C17.34 75 16.68 75 16 75 C15.67 75.99 15.34 76.98 15 78 C15 77.34 15 76.68 15 76 C8.26118089 75.32722182 8.26118089 75.32722182 2.375 78 C1.694375 78.99 1.694375 78.99 1 80 C-0.50252261 76.99495478 -0.1299093 73.90739902 -0.11352539 70.61279297 C-0.11370619 69.45270564 -0.11370619 69.45270564 -0.11389065 68.26918221 C-0.11314293 65.76015494 -0.10552107 63.25120151 -0.09765625 60.7421875 C-0.0961864 59.19539424 -0.09516595 57.64860049 -0.09460449 56.10180664 C-0.08935665 50.35953019 -0.0753955 44.61726437 -0.0625 38.875 C-0.041875 26.04625 -0.02125 13.2175 0 0 Z " fill="#FDFDFC" transform="translate(0,0)"/>
<path d="M0 0 C7.30585655 4.38351393 13.03205889 8.21175891 15.69921875 16.703125 C17.28436916 24.78884638 16.88159717 32.46099644 12.7421875 39.65234375 C8.50964351 45.46953585 3.10552967 49.92960649 -3.875 51.875 C-12.59549685 52.89353572 -19.67510277 52.11358955 -26.875 46.875 C-32.4050563 41.87808712 -36.45974416 36.43696561 -37.15234375 28.828125 C-37.38323522 20.81157318 -36.50607782 15.12520264 -32.25 8.25 C-23.77798687 -0.22201313 -11.78103709 -4.65761932 0 0 Z " fill="#F7F9F6" transform="translate(56.875,10.125)"/>
<path d="M0 0 C0 3.11227195 -0.45627049 5.94152152 -1 9 C-0.030625 9.12375 0.93875 9.2475 1.9375 9.375 C2.948125 9.58125 3.95875 9.7875 5 10 C5.33 10.66 5.66 11.32 6 12 C3.03 11.67 0.06 11.34 -3 11 C-3 14.3 -3 17.6 -3 21 C-1.68 20.34 -0.36 19.68 1 19 C1.33 21.64 1.66 24.28 2 27 C2.7115625 25.7625 2.7115625 25.7625 3.4375 24.5 C4.2109375 23.2625 4.2109375 23.2625 5 22 C5.33 22 5.66 22 6 22 C6.08636719 22.69867188 6.17273438 23.39734375 6.26171875 24.1171875 C6.68155829 26.83651515 7.14251041 29.38378178 8 32 C10.39529669 33.32481546 10.39529669 33.32481546 13 34 C14.8125 37.125 14.8125 37.125 16 40 C16.33 40 16.66 40 17 40 C17 41.65 17 43.3 17 45 C18.98 45 20.96 45 23 45 C23.495 44.01 23.495 44.01 24 43 C25.98 43 27.96 43 30 43 C29 46 29 46 26.25 47.6875 C19.89871321 50.12628979 12.65507084 50.09500042 6.18359375 48.15625 C-1.23682773 44.80289922 -5.76887451 39.67056129 -9.9375 32.8125 C-12.30062395 24.33305525 -11.93990833 15.87981666 -8 8 C-5.69818414 4.6586544 -3.35319063 2.27537936 0 0 Z " fill="#F3F6F5" transform="translate(31,13)"/>
<path d="M0 0 C4.97514966 2.86910905 8.07012242 6.03777966 10.7644043 11.05297852 C11.6925293 12.56891602 11.6925293 12.56891602 12.6394043 14.11547852 C15.4574428 21.47275269 14.81744789 31.16040669 12.2644043 38.49047852 C8.50744399 46.44094732 1.94696805 52.0103025 -6.2355957 55.05297852 C-13.89938278 57.41106685 -22.11220286 56.92714442 -29.20825195 53.24438477 C-29.87727539 52.8512207 -30.54629883 52.45805664 -31.2355957 52.05297852 C-31.87368164 51.69075195 -32.51176758 51.32852539 -33.16918945 50.95532227 C-39.7845233 46.75849757 -43.18744396 40.49100327 -45.2355957 33.05297852 C-46.13826529 23.88375592 -46.29007976 15.54185825 -40.2355957 8.05297852 C-29.40633538 -4.48616502 -14.91997259 -7.85805481 0 0 Z M-31.2355957 4.05297852 C-32.1224707 4.63047852 -33.0093457 5.20797852 -33.9230957 5.80297852 C-40.01703261 11.73221442 -42.34803162 17.79612514 -42.6105957 26.17797852 C-42.52412659 33.89102355 -40.55441178 39.38006282 -35.3684082 45.11938477 C-28.43475994 51.58089745 -21.96810747 53.719546 -12.52075195 53.45922852 C-4.41076174 52.45632842 1.37283907 48.40997416 6.3581543 42.07250977 C11.24700265 35.05158032 11.54402031 28.38644154 10.7644043 20.05297852 C10.08134767 17.2861042 9.21130631 15.58505703 7.7644043 13.05297852 C7.2281543 12.04235352 6.6919043 11.03172852 6.1394043 9.99047852 C2.29357202 5.23379123 -3.06261056 1.06678994 -9.2355957 0.05297852 C-17.41562434 -0.56153102 -24.3659466 -0.7725311 -31.2355957 4.05297852 Z " fill="#285790" transform="translate(62.235595703125,8.947021484375)"/>
<path d="M0 0 C5.46845755 3.80414439 5.46845755 3.80414439 7.9296875 6.125 C7.9296875 7.115 7.9296875 8.105 7.9296875 9.125 C8.5896875 9.125 9.2496875 9.125 9.9296875 9.125 C15.36318745 18.80827313 16.53576027 27.54965761 13.8671875 38.375 C10.83253145 47.17836541 4.02951469 54.4818361 -4.16796875 58.73046875 C-8.57971942 60.55817748 -12.78559121 60.60375849 -17.5078125 60.5625 C-18.31541016 60.58248047 -19.12300781 60.60246094 -19.95507812 60.62304688 C-29.21328531 60.6155866 -35.36934551 56.5076326 -42.01953125 50.33984375 C-49.1651185 42.62260952 -50.65651243 33.98181277 -50.52734375 23.70703125 C-49.52839712 15.87768028 -46.08349446 9.04877003 -40.4375 3.5703125 C-28.02651904 -5.86756439 -13.85142504 -8.45888552 0 0 Z M-33.0703125 2.125 C-34.00810547 2.63353516 -34.00810547 2.63353516 -34.96484375 3.15234375 C-41.04377217 6.87386638 -43.96121228 12.90679955 -47.0703125 19.125 C-47.70746407 28.16001817 -47.96477738 36.18581784 -43.0703125 44.125 C-42.62945312 44.95257813 -42.18859375 45.78015625 -41.734375 46.6328125 C-38.32869783 51.73333371 -32.60197761 54.85916745 -27.1953125 57.5625 C-18.20942323 59.17996007 -10.08230036 58.72447451 -2.0703125 54.125 C4.91172549 49.13610435 9.56748148 43.46747441 11.9296875 35.125 C13.10073852 24.03083242 11.46000039 16.61544826 5.16015625 7.58984375 C0.19670948 2.1048439 -7.31836424 -1.24547848 -14.5625 -2.4609375 C-21.56640332 -2.67517454 -27.06327332 -1.45089955 -33.0703125 2.125 Z " fill="#E9C62F" transform="translate(64.0703125,6.875)"/>
<path d="M0 0 C3.78834395 1.26278132 4.22011278 2.52112952 6 6 C8.29826731 13.29380667 8.11241999 21.61051186 4.8125 28.5 C2.62790613 32.24676156 0.60336884 35.48602174 -3 38 C-5.76011025 38.34566846 -8.20058836 38.18662744 -11 38 C-11.495 38.495 -11.495 38.495 -12 39 C-13.99958364 39.04080783 -16.00045254 39.04254356 -18 39 C-18.4375 36.875 -18.4375 36.875 -18 34 C-14.6088181 30.16815604 -10.37554422 27.57384954 -6 25 C-4.47893366 21.95786733 -4.62570662 18.71952428 -4.4375 15.375 C-4.39431641 14.66859375 -4.35113281 13.9621875 -4.30664062 13.234375 C-4.20055249 11.48981463 -4.09977111 9.74493303 -4 8 C-3.01 8 -2.02 8 -1 8 C-1.33 6.02 -1.66 4.04 -2 2 C-1.34 2 -0.68 2 0 2 C0 1.34 0 0.68 0 0 Z " fill="#F8FAF9" transform="translate(66,19)"/>
<path d="M0 0 C2.0625 2 2.0625 2 3 4 C2.34 4 1.68 4 1 4 C1 4.66 1 5.32 1 6 C0.34 6 -0.32 6 -1 6 C-0.67 7.98 -0.34 9.96 0 12 C-0.99 12 -1.98 12 -3 12 C-2.94199219 13.02480469 -2.88398437 14.04960937 -2.82421875 15.10546875 C-2.77730043 16.46610011 -2.73180248 17.82678096 -2.6875 19.1875 C-2.64560547 19.86103516 -2.60371094 20.53457031 -2.56054688 21.22851562 C-2.46488687 25.15057603 -2.81773431 26.7763799 -5.32421875 29.8515625 C-8.11880343 32.09538962 -10.968726 34.08897944 -14 36 C-14.99 36.66 -15.98 37.32 -17 38 C-15.54742261 34.33283741 -13.76538946 32.91553575 -10.4375 30.875 C-7.12890878 28.98528237 -7.12890878 28.98528237 -5 26 C-8.18234105 27.75454385 -8.18234105 27.75454385 -11 30 C-13.67058851 30.14115161 -16.32432238 30.04247107 -19 30 C-19 29.34 -19 28.68 -19 28 C-19.66 27.67 -20.32 27.34 -21 27 C-19.02253397 26.26919734 -17.01927511 25.60578253 -15 25 C-14.34 25.33 -13.68 25.66 -13 26 C-13 25.34 -13 24.68 -13 24 C-13.66 24 -14.32 24 -15 24 C-15.33 22.68 -15.66 21.36 -16 20 C-16.33 20.33 -16.66 20.66 -17 21 C-19.67058851 21.14115161 -22.32432238 21.04247107 -25 21 C-25 20.34 -25 19.68 -25 19 C-24.34 19 -23.68 19 -23 19 C-23 18.34 -23 17.68 -23 17 C-19.7 17 -16.4 17 -13 17 C-12.690625 15.411875 -12.38125 13.82375 -12.0625 12.1875 C-11.51076205 9.35524518 -10.91407022 6.74221066 -10 4 C-10.66 4 -11.32 4 -12 4 C-12 3.01 -12 2.02 -12 1 C-7.98122566 -0.33959145 -4.20247414 -0.6025894 0 0 Z " fill="#CDD4D3" transform="translate(65,15)"/>
<path d="M0 0 C1.65 0.66 3.3 1.32 5 2 C5 6.29 5 10.58 5 15 C0 16 0 16 -3 14 C-3 12.68 -3 11.36 -3 10 C-3.99 10 -4.98 10 -6 10 C-6 11.65 -6 13.3 -6 15 C-7.91595968 15.08133791 -9.83291932 15.13934367 -11.75 15.1875 C-12.81734375 15.22230469 -13.8846875 15.25710937 -14.984375 15.29296875 C-18.3449718 14.9664859 -19.68314066 14.42771386 -22 12 C-22.375 8.4375 -22.375 8.4375 -22 5 C-20 3 -20 3 -16.625 2.875 C-15.42875 2.91625 -14.2325 2.9575 -13 3 C-11.68 3 -10.36 3 -9 3 C-8.34 3 -7.68 3 -7 3 C-7 4.32 -7 5.64 -7 7 C-5.68 7 -4.36 7 -3 7 C-2.67 5.35 -2.34 3.7 -2 2 C-1.34 2 -0.68 2 0 2 C0 1.34 0 0.68 0 0 Z " fill="#BCCEE0" transform="translate(25,72)"/>
<path d="M0 0 C5.94 0.33 11.88 0.66 18 1 C15 3 15 3 13 3 C13 3.66 13 4.32 13 5 C11.68 5.33 10.36 5.66 9 6 C10.65 6.33 12.3 6.66 14 7 C14.33 9.64 14.66 12.28 15 15 C14.01 15.495 14.01 15.495 13 16 C12.34 16.99 11.68 17.98 11 19 C10.67 17.68 10.34 16.36 10 15 C8.68 15.33 7.36 15.66 6 16 C6 17.32 6 18.64 6 20 C5.01 20 4.02 20 3 20 C2.34 19.01 1.68 18.02 1 17 C0.67 17.99 0.34 18.98 0 20 C-0.99 20 -1.98 20 -3 20 C-3 16.37 -3 12.74 -3 9 C-2.01 9 -1.02 9 0 9 C0.33 9.99 0.66 10.98 1 12 C1.66 11.01 2.32 10.02 3 9 C3.99 9.33 4.98 9.66 6 10 C5.67 10.99 5.34 11.98 5 13 C5.66 13 6.32 13 7 13 C7 11.02 7 9.04 7 7 C4.69 7.33 2.38 7.66 0 8 C0.185625 7.236875 0.37125 6.47375 0.5625 5.6875 C1.22819173 2.91032625 1.22819173 2.91032625 0 0 Z " fill="#FBF6EC" transform="translate(35,66)"/>
<path d="M0 0 C0.33 0.66 0.66 1.32 1 2 C-1.97 1.67 -4.94 1.34 -8 1 C-8 4.3 -8 7.6 -8 11 C-6.68 10.34 -5.36 9.68 -4 9 C-3.67 11.64 -3.34 14.28 -3 17 C-2.2884375 15.7625 -2.2884375 15.7625 -1.5625 14.5 C-1.046875 13.675 -0.53125 12.85 0 12 C0.33 12 0.66 12 1 12 C1.08636719 12.69867188 1.17273437 13.39734375 1.26171875 14.1171875 C1.68155829 16.83651515 2.14251041 19.38378178 3 22 C5.39529669 23.32481546 5.39529669 23.32481546 8 24 C9.8125 27.125 9.8125 27.125 11 30 C11.33 30 11.66 30 12 30 C12 31.65 12 33.3 12 35 C13.65 35 15.3 35 17 35 C17 35.66 17 36.32 17 37 C14.69 37 12.38 37 10 37 C9.649375 36.21625 9.29875 35.4325 8.9375 34.625 C4.37900916 25.572831 -0.37637254 19.5744902 -10 16 C-10.33 13.69 -10.66 11.38 -11 9 C-11.66 9 -12.32 9 -13 9 C-13.33 10.32 -13.66 11.64 -14 13 C-14.61364554 5.75898264 -14.61364554 5.75898264 -11.625 2.0625 C-7.3142783 -1.32449562 -5.38024386 -1.07604877 0 0 Z " fill="#6E7681" transform="translate(36,23)"/>
<path d="M0 0 C2.33333333 0 4.66666667 0 7 0 C7 4.62 7 9.24 7 14 C6.01 14 5.02 14 4 14 C3.67 11.36 3.34 8.72 3 6 C2.71125 6.94875 2.4225 7.8975 2.125 8.875 C1 12 1 12 -1 14 C-2.98 14 -4.96 14 -7 14 C-7 10.04 -7 6.08 -7 2 C-4.69 2 -2.38 2 0 2 C0 1.34 0 0.68 0 0 Z " fill="#104189" transform="translate(76,72)"/>
<path d="M0 0 C1.3479743 0.63654342 2.68596724 1.29605388 4 2 C4 3.98 4 5.96 4 8 C3.01 8 2.02 8 1 8 C1 10.31 1 12.62 1 15 C-0.875 14.8125 -0.875 14.8125 -3 14 C-4.25 11.4375 -4.25 11.4375 -5 9 C-5.66 9 -6.32 9 -7 9 C-7 10.98 -7 12.96 -7 15 C-7.66 15 -8.32 15 -9 15 C-9 11.04 -9 7.08 -9 3 C-8.01 3 -7.02 3 -6 3 C-6 2.01 -6 1.02 -6 0 C-3.44901433 -1.27549283 -2.66705587 -0.86287102 0 0 Z " fill="#E2E3DB" transform="translate(59,71)"/>
<path d="M0 0 C0.99 0.33 1.98 0.66 3 1 C1.73005066 7.34974672 -2.16234241 11.01954139 -7 15 C-14.70447702 19.85354238 -21.97845916 20.69042404 -31 20 C-33.88352124 19.2439548 -36.28023872 18.25527444 -39 17 C-38.67 15.68 -38.34 14.36 -38 13 C-37.113125 13.495 -36.22625 13.99 -35.3125 14.5 C-28.96321763 17.17338205 -21.6811403 17.13459804 -15.1484375 15.12109375 C-7.96282015 11.83220847 -3.35680455 7.10212814 0 0 Z " fill="#345C8C" transform="translate(71,45)"/>
<path d="M0 0 C0.66 0 1.32 0 2 0 C2.54958958 9.89261236 0.24202239 17.39863377 -6.17578125 25.02734375 C-11.40687346 30.68409228 -17.18714704 35.01340728 -25.11328125 35.36328125 C-26.51312257 35.36197421 -27.91303366 35.34492508 -29.3125 35.3125 C-30.02728516 35.31572266 -30.74207031 35.31894531 -31.47851562 35.32226562 C-36.73220238 35.26779762 -36.73220238 35.26779762 -39 33 C-38.10539062 32.97421875 -37.21078125 32.9484375 -36.2890625 32.921875 C-25.26851928 32.40491988 -16.88066542 30.62729856 -8.6875 22.9296875 C-6.04904252 19.91256251 -4.48545074 16.69397802 -3 13 C-2.4121875 11.7625 -2.4121875 11.7625 -1.8125 10.5 C-0.68181035 7.02095491 -0.37000987 3.63843041 0 0 Z " fill="#F0C821" transform="translate(77,32)"/>
<path d="M0 0 C2.475 0.99 2.475 0.99 5 2 C5 6.29 5 10.58 5 15 C0 16 0 16 -2 15 C-2 13.02 -2 11.04 -2 9 C-3.65 9 -5.3 9 -7 9 C-7 10.65 -7 12.3 -7 14 C-7.66 14 -8.32 14 -9 14 C-9 10.37 -9 6.74 -9 3 C-8.34 3 -7.68 3 -7 3 C-7 4.32 -7 5.64 -7 7 C-5.68 7 -4.36 7 -3 7 C-2.67 5.35 -2.34 3.7 -2 2 C-1.34 2 -0.68 2 0 2 C0 1.34 0 0.68 0 0 Z " fill="#8AA0BD" transform="translate(25,72)"/>
<path d="M0 0 C-0.020625 1.093125 -0.04125 2.18625 -0.0625 3.3125 C-0.18544452 6.94384191 -0.18544452 6.94384191 1 10 C0.01 10 -0.98 10 -2 10 C-2.33 14.62 -2.66 19.24 -3 24 C-3.33 24 -3.66 24 -4 24 C-4 22.35 -4 20.7 -4 19 C-4.66 19 -5.32 19 -6 19 C-8.52055505 15.21916742 -8.46702178 11.38281981 -8 7 C-7 4.5 -7 4.5 -6 3 C-6.66 2.67 -7.32 2.34 -8 2 C-5.09399739 0.74335022 -3.20395416 0 0 0 Z " fill="#F8F9F4" transform="translate(63,16)"/>
<path d="M0 0 C0.66 0 1.32 0 2 0 C2 4.62 2 9.24 2 14 C0 11 0 11 0 8 C-0.66 8 -1.32 8 -2 8 C-2 10.31 -2 12.62 -2 15 C-5.3 15.33 -8.6 15.66 -12 16 C-12 15.34 -12 14.68 -12 14 C-13.65 14.33 -15.3 14.66 -17 15 C-16.34 14.67 -15.68 14.34 -15 14 C-15 12.02 -15 10.04 -15 8 C-14.34 8 -13.68 8 -13 8 C-12.525625 8.804375 -12.05125 9.60875 -11.5625 10.4375 C-10.20016328 13.2918076 -10.20016328 13.2918076 -7 14 C-7 11.69 -7 9.38 -7 7 C-6.01 7 -5.02 7 -4 7 C-3.71125 6.401875 -3.4225 5.80375 -3.125 5.1875 C-2 3 -2 3 0 0 Z " fill="#FCFBF3" transform="translate(67,72)"/>
<path d="M0 0 C2.0625 2 2.0625 2 3 4 C2.34 4 1.68 4 1 4 C1 4.66 1 5.32 1 6 C0.34 6 -0.32 6 -1 6 C-0.67 7.98 -0.34 9.96 0 12 C-0.99 12 -1.98 12 -3 12 C-2.91298828 13.53720703 -2.91298828 13.53720703 -2.82421875 15.10546875 C-2.77730043 16.46610011 -2.73180248 17.82678096 -2.6875 19.1875 C-2.6246582 20.19780273 -2.6246582 20.19780273 -2.56054688 21.22851562 C-2.46488687 25.15057603 -2.81773431 26.7763799 -5.32421875 29.8515625 C-8.11880343 32.09538962 -10.968726 34.08897944 -14 36 C-14.99 36.66 -15.98 37.32 -17 38 C-15.54742261 34.33283741 -13.76538946 32.91553575 -10.4375 30.875 C-7.12890878 28.98528237 -7.12890878 28.98528237 -5 26 C-4.95439607 23.83381332 -4.96165792 21.66632738 -5 19.5 C-5.11111111 13.22222222 -5.11111111 13.22222222 -4 11 C-3.01 11 -2.02 11 -1 11 C-1.66 10.01 -2.32 9.02 -3 8 C-2.625 4.3125 -2.625 4.3125 -2 1 C-6.95 2.485 -6.95 2.485 -12 4 C-12 3.01 -12 2.02 -12 1 C-7.98122566 -0.33959145 -4.20247414 -0.6025894 0 0 Z " fill="#7D828B" transform="translate(65,15)"/>
<path d="M0 0 C2.8125 -0.25 2.8125 -0.25 6 0 C7.875 1.625 7.875 1.625 9 4 C9.1875 7.25 9.1875 7.25 9 10 C5.7 9.67 2.4 9.34 -1 9 C-1.125 2.25 -1.125 2.25 0 0 Z " fill="#FBFCFD" transform="translate(33,47)"/>
<path d="M0 0 C0.99 0 1.98 0 3 0 C1.78546203 3.6436139 0.84726132 3.91981252 -2.375 5.8125 C-6.3810489 8.35369795 -8.36337622 10.41745341 -10 15 C-11.50560497 12.14589666 -12.63216796 9.31875358 -13.625 6.25 C-13.88539062 5.45078125 -14.14578125 4.6515625 -14.4140625 3.828125 C-14.60742188 3.22484375 -14.80078125 2.6215625 -15 2 C-13.68 2 -12.36 2 -11 2 C-11 2.66 -11 3.32 -11 4 C-5.66281453 3.81953548 -5.66281453 3.81953548 -1.1875 1.4375 C-0.795625 0.963125 -0.40375 0.48875 0 0 Z " fill="#F6F9F9" transform="translate(57,41)"/>
<path d="M0 0 C1.16499023 -0.0309375 1.16499023 -0.0309375 2.35351562 -0.0625 C7.32005171 -0.09614292 10.58131302 0.60143831 14.9375 3.25 C14.6075 3.91 14.2775 4.57 13.9375 5.25 C13.34324219 5.105625 12.74898437 4.96125 12.13671875 4.8125 C3.16619427 2.80354895 -5.30048469 2.13461678 -14.0625 5.25 C-14.7225 3.93 -15.3825 2.61 -16.0625 1.25 C-10.68010312 0.36129532 -5.45216121 0.03637806 0 0 Z " fill="#F8FBF2" transform="translate(47.0625,-0.25)"/>
<path d="M0 0 C1.32 0.33 2.64 0.66 4 1 C5.25 3.5625 5.25 3.5625 6 6 C6.33 4.35 6.66 2.7 7 1 C7.66 1 8.32 1 9 1 C9 4.63 9 8.26 9 12 C5 10 5 10 4.25 7.875 C4.12625 6.946875 4.12625 6.946875 4 6 C3.34 6 2.68 6 2 6 C2 7.98 2 9.96 2 12 C1.34 12 0.68 12 0 12 C0 8.04 0 4.08 0 0 Z " fill="#F4CF3E" transform="translate(50,74)"/>
<path d="M0 0 C1 3 1 3 -0.1796875 5.41015625 C-0.73914062 6.28542969 -1.29859375 7.16070313 -1.875 8.0625 C-2.42929687 8.94035156 -2.98359375 9.81820313 -3.5546875 10.72265625 C-4.03164063 11.47417969 -4.50859375 12.22570313 -5 13 C-6.4807848 15.9615696 -6.35314037 18.83506295 -6.5625 22.125 C-6.64628906 23.40632813 -6.73007812 24.68765625 -6.81640625 26.0078125 C-6.90728516 27.48894531 -6.90728516 27.48894531 -7 29 C-7.33 29 -7.66 29 -8 29 C-8.33 26.36 -8.66 23.72 -9 21 C-9.33 21 -9.66 21 -10 21 C-9.72286671 13.65596784 -7.10893764 8.07141531 -3 2 C-2.01 1.34 -1.02 0.68 0 0 Z " fill="#E3C542" transform="translate(24,11)"/>
<path d="M0 0 C0.99 0 1.98 0 3 0 C3.33 0.99 3.66 1.98 4 3 C4.66 2.01 5.32 1.02 6 0 C6.99 0.33 7.98 0.66 9 1 C8.01 2.485 8.01 2.485 7 4 C7.25723969 6.02919843 7.25723969 6.02919843 8 8 C8.33 8.99 8.66 9.98 9 11 C8.01 11 7.02 11 6 11 C5.34 10.01 4.68 9.02 4 8 C3.67 8.99 3.34 9.98 3 11 C2.01 11 1.02 11 0 11 C0 7.37 0 3.74 0 0 Z " fill="#38598D" transform="translate(32,75)"/>
<path d="M0 0 C2.33333333 0 4.66666667 0 7 0 C7 4.62 7 9.24 7 14 C6.01 14 5.02 14 4 14 C3.9175 12.72125 3.835 11.4425 3.75 10.125 C3.42790214 6.88433 3.42790214 6.88433 1.3125 4.5625 C-1.44622804 3.89145804 -4.18690691 3.3836036 -7 3 C-7 2.67 -7 2.34 -7 2 C-4.69 2 -2.38 2 0 2 C0 1.34 0 0.68 0 0 Z " fill="#8BA4C4" transform="translate(76,72)"/>
<path d="M0 0 C0 3.27593931 -0.09616295 5.83657034 -1 9 C-1.969375 9.5775 -2.93875 10.155 -3.9375 10.75 C-7.46604221 13.34239836 -7.58110031 14.12403954 -8.375 18.25 C-8.60787691 19.82990999 -8.82430794 21.41271316 -9 23 C-9.33 23 -9.66 23 -10 23 C-11.34199777 17.14400973 -10.74793776 13.349469 -8 8 C-5.69818414 4.6586544 -3.35319063 2.27537936 0 0 Z " fill="#F4F6F1" transform="translate(31,13)"/>
<path d="M0 0 C0.66 0 1.32 0 2 0 C2 1.32 2 2.64 2 4 C3.32 4 4.64 4 6 4 C6 2.68 6 1.36 6 0 C6.99 0 7.98 0 9 0 C9 3.63 9 7.26 9 11 C8.34 11 7.68 11 7 11 C7 9.35 7 7.7 7 6 C5.35 6 3.7 6 2 6 C2 7.65 2 9.3 2 11 C1.34 11 0.68 11 0 11 C0 7.37 0 3.74 0 0 Z " fill="#24508C" transform="translate(16,75)"/>
<path d="M0 0 C1.7325 0.1546875 1.7325 0.1546875 3.5 0.3125 C4.16 1.3025 4.82 2.2925 5.5 3.3125 C3.19 3.3125 0.88 3.3125 -1.5 3.3125 C-1.83 4.6325 -2.16 5.9525 -2.5 7.3125 C-1.3553125 7.5290625 -1.3553125 7.5290625 -0.1875 7.75 C2.5 8.3125 2.5 8.3125 5.5 9.3125 C3.5 11.3125 3.5 11.3125 0 11.5625 C-3.5 11.3125 -3.5 11.3125 -5.5 9.3125 C-5.75 5.8125 -5.75 5.8125 -5.5 2.3125 C-3.5 0.3125 -3.5 0.3125 0 0 Z " fill="#2C5389" transform="translate(8.5,74.6875)"/>
<path d="M0 0 C2.31 0 4.62 0 7 0 C7 1.98 7 3.96 7 6 C5.35 6.33 3.7 6.66 2 7 C2 8.32 2 9.64 2 11 C1.34 11 0.68 11 0 11 C0 7.37 0 3.74 0 0 Z " fill="#456A9B" transform="translate(85,75)"/>
<path d="M0 0 C3.23174165 1.07724722 5.74004157 2.46791465 8.4375 4.5 C11.47399978 6.75739786 14.3168518 8.01183829 18 9 C18 9.99 18 10.98 18 12 C11.27012883 11.6548784 6.13436354 7.78148817 1.23046875 3.4296875 C0 2 0 2 0 0 Z " fill="#EAC62F" transform="translate(22,55)"/>
<path d="M0 0 C-0.33 0.33 -0.66 0.66 -1 1 C1.64 1.33 4.28 1.66 7 2 C7 2.33 7 2.66 7 3 C5.83984375 3.05607422 5.83984375 3.05607422 4.65625 3.11328125 C-1.82241629 3.52220697 -7.05882698 4.37217347 -13 7 C-13 4.6875 -13 4.6875 -12 2 C-7.99105862 -0.43105141 -4.51745992 -1.48213292 0 0 Z " fill="#356090" transform="translate(44,6)"/>
<path d="M0 0 C1.8125 0.125 1.8125 0.125 4 1 C5.75 4.0625 5.75 4.0625 7 7 C7.33 7 7.66 7 8 7 C8 8.65 8 10.3 8 12 C9.65 12 11.3 12 13 12 C13 12.66 13 13.32 13 14 C10.69 14 8.38 14 6 14 C3.65486593 9.41632887 1.62783295 4.88349886 0 0 Z " fill="#DAD5C9" transform="translate(40,46)"/>
<path d="M0 0 C1.98 0 3.96 0 6 0 C6 0.66 6 1.32 6 2 C6.66 2.33 7.32 2.66 8 3 C6.02 3 4.04 3 2 3 C2 6.63 2 10.26 2 14 C2.66 14.33 3.32 14.66 4 15 C2.68 15.33 1.36 15.66 0 16 C0 10.72 0 5.44 0 0 Z " fill="#D6DDE5" transform="translate(83,72)"/>
<path d="M0 0 C0.33 0.66 0.66 1.32 1 2 C-1.97 1.67 -4.94 1.34 -8 1 C-7.979375 2.051875 -7.95875 3.10375 -7.9375 4.1875 C-7.98896802 7.32704904 -8.26517187 9.96883396 -9 13 C-9.33 13 -9.66 13 -10 13 C-10 11.02 -10 9.04 -10 7 C-10.99 7.33 -11.98 7.66 -13 8 C-13.375 5.75 -13.375 5.75 -13 3 C-8.63506975 -1.04554511 -5.69556756 -1.56348913 0 0 Z " fill="#BCBC9E" transform="translate(36,23)"/>
<path d="M0 0 C0.99 0 1.98 0 3 0 C3 0.66 3 1.32 3 2 C4.65 2 6.3 2 8 2 C8 2.99 8 3.98 8 5 C5.42786866 6.61949011 4.32330841 7.04408751 1.25 6.625 C0.5075 6.41875 -0.235 6.2125 -1 6 C-1.625 4.125 -1.625 4.125 -2 2 C-1.34 1.34 -0.68 0.68 0 0 Z " fill="#F3F6F6" transform="translate(7,77)"/>
<path d="M0 0 C0.66 0.99 1.32 1.98 2 3 C0.8553125 4.0828125 0.8553125 4.0828125 -0.3125 5.1875 C-3.044086 7.83926978 -3.044086 7.83926978 -4.6875 10.8125 C-5.120625 11.534375 -5.55375 12.25625 -6 13 C-6.66 13 -7.32 13 -8 13 C-7.67 10.69 -7.34 8.38 -7 6 C-6.34 6 -5.68 6 -5 6 C-5.33 4.35 -5.66 2.7 -6 1 C-4.7934375 1.0309375 -4.7934375 1.0309375 -3.5625 1.0625 C-1.06645115 1.29633621 -1.06645115 1.29633621 0 0 Z " fill="#FAF7EB" transform="translate(24,7)"/>
<path d="M0 0 C2.0625 2 2.0625 2 3 4 C2.34 4 1.68 4 1 4 C1 4.66 1 5.32 1 6 C0.34 6 -0.32 6 -1 6 C-0.67 6.99 -0.34 7.98 0 9 C-0.99 8.67 -1.98 8.34 -3 8 C-2.67 5.69 -2.34 3.38 -2 1 C-6.95 2.485 -6.95 2.485 -12 4 C-12 3.01 -12 2.02 -12 1 C-7.98122566 -0.33959145 -4.20247414 -0.6025894 0 0 Z " fill="#C5CDCD" transform="translate(65,15)"/>
<path d="M0 0 C0.33 0 0.66 0 1 0 C1 1.65 1 3.3 1 5 C1.66 5 2.32 5 3 5 C3 8.96 3 12.92 3 17 C2.67 17 2.34 17 2 17 C2 15.35 2 13.7 2 12 C1.34 12 0.68 12 0 12 C-2.08901197 8.60535554 -2.34361606 5.95158471 -2 2 C-1.34 1.34 -0.68 0.68 0 0 Z " fill="#FBFCF5" transform="translate(57,23)"/>
<path d="M0 0 C6.7281627 -0.22262303 12.53991163 0.04978464 19 2 C19 2.66 19 3.32 19 4 C17.741875 3.855625 16.48375 3.71125 15.1875 3.5625 C9.79870505 2.96183814 4.40116209 2.47449461 -1 2 C-0.67 1.34 -0.34 0.68 0 0 Z " fill="#F6CA29" transform="translate(40,2)"/>
<path d="M0 0 C0.804375 1.051875 0.804375 1.051875 1.625 2.125 C4.25125954 5.30415629 7.05202251 8.119022 10 11 C9.67 11.99 9.34 12.98 9 14 C7.87043002 13.23587913 6.74651022 12.46340197 5.625 11.6875 C4.99851562 11.25824219 4.37203125 10.82898437 3.7265625 10.38671875 C2 9 2 9 0 6 C-0.125 2.8125 -0.125 2.8125 0 0 Z " fill="#375C95" transform="translate(22,47)"/>
<path d="M0 0 C0.66 0.33 1.32 0.66 2 1 C0.68 2.32 -0.64 3.64 -2 5 C-2.66 4.34 -3.32 3.68 -4 3 C-2.68 2.01 -1.36 1.02 0 0 Z M-5 4 C-3.68 5.32 -2.36 6.64 -1 8 C-2.3125 9.5 -2.3125 9.5 -4 11 C-4.99 11 -5.98 11 -7 11 C-7.125 8.625 -7.125 8.625 -7 6 C-6.34 5.34 -5.68 4.68 -5 4 Z " fill="#F4F6F2" transform="translate(55,47)"/>
<path d="M0 0 C1.32 0 2.64 0 4 0 C4.33 2.64 4.66 5.28 5 8 C4.01 8.495 4.01 8.495 3 9 C2.34 9.99 1.68 10.98 1 12 C-0.11367327 7.96293439 0 4.16604332 0 0 Z " fill="#CFD3DF" transform="translate(45,73)"/>
<path d="M0 0 C0.66 0 1.32 0 2 0 C2 4.62 2 9.24 2 14 C0 11 0 11 0 8 C-0.66 8 -1.32 8 -2 8 C-2.20086443 4.28400809 -2.1519437 3.22791555 0 0 Z " fill="#E5E9EE" transform="translate(67,72)"/>
<path d="M0 0 C2.31 0 4.62 0 7 0 C6 3 6 3 2.75 4.75 C-0.92081925 5.97360642 -2.41608962 6.19463679 -6 5 C-6 4.67 -6 4.34 -6 4 C-4.35 4 -2.7 4 -1 4 C-0.67 2.68 -0.34 1.36 0 0 Z " fill="#E5EBE5" transform="translate(54,56)"/>
<path d="M0 0 C0 1.98 0 3.96 0 6 C-1.32 6.33 -2.64 6.66 -4 7 C-3.34 5.68 -2.68 4.36 -2 3 C-4.12364481 2.77390663 -4.12364481 2.77390663 -5.625 4.5 C-6.07875 4.995 -6.5325 5.49 -7 6 C-7 4.68 -7 3.36 -7 2 C-7.99 1.67 -8.98 1.34 -10 1 C-6.59437148 0.22157062 -3.49234244 -0.09978121 0 0 Z " fill="#DCE6EE" transform="translate(42,73)"/>
<path d="M0 0 C2.67927341 4.01891012 2.15601248 6.24161923 2 11 C2.66 11.33 3.32 11.66 4 12 C3.01 12.33 2.02 12.66 1 13 C-1.1875 11.5625 -1.1875 11.5625 -3 10 C-2.34 9.34 -1.68 8.68 -1 8 C-0.54188325 6.02764667 -0.54188325 6.02764667 -0.375 3.875 C-0.25125 2.59625 -0.1275 1.3175 0 0 Z " fill="#E8EEEE" transform="translate(78,75)"/>
<path d="M0 0 C0.66 0 1.32 0 2 0 C2 1.65 2 3.3 2 5 C2.99 5 3.98 5 5 5 C5 5.66 5 6.32 5 7 C4.34 7 3.68 7 3 7 C3 8.32 3 9.64 3 11 C2.01 11 1.02 11 0 11 C0 7.37 0 3.74 0 0 Z " fill="#3F649C" transform="translate(32,75)"/>
<path d="M0 0 C0.33 0 0.66 0 1 0 C1.08160748 1.89510699 1.13946459 3.79124504 1.1875 5.6875 C1.22230469 6.74324219 1.25710937 7.79898438 1.29296875 8.88671875 C0.96555119 12.36607599 0.05643142 14.2080188 -2 17 C-2.33 17 -2.66 17 -3 17 C-2.67 14.36 -2.34 11.72 -2 9 C-1.34 9 -0.68 9 0 9 C0 6.03 0 3.06 0 0 Z " fill="#154E90" transform="translate(75,30)"/>
<path d="M0 0 C0.66902344 0.10054688 1.33804688 0.20109375 2.02734375 0.3046875 C2.69894531 0.38976562 3.37054688 0.47484375 4.0625 0.5625 C5.96484375 1.1796875 5.96484375 1.1796875 8.96484375 4.1796875 C4.01484375 3.8496875 -0.93515625 3.5196875 -6.03515625 3.1796875 C-2.03515625 0.1796875 -2.03515625 0.1796875 0 0 Z " fill="#164E98" transform="translate(46.03515625,4.8203125)"/>
<path d="M0 0 C0.99 0.33 1.98 0.66 3 1 C4.1875 4.5625 4.1875 4.5625 5 8 C3.35 8.66 1.7 9.32 0 10 C0 6.7 0 3.4 0 0 Z " fill="#EBF3F0" transform="translate(0,78)"/>
<path d="M0 0 C-0.33 1.98 -0.66 3.96 -1 6 C-2.32 6 -3.64 6 -5 6 C-5 4.68 -5 3.36 -5 2 C-5.99 1.67 -6.98 1.34 -8 1 C-5.10765685 0.17361624 -3.11257569 0 0 0 Z " fill="#E3EAEB" transform="translate(23,73)"/>
<path d="M0 0 C0.99 0 1.98 0 3 0 C2.979375 1.093125 2.95875 2.18625 2.9375 3.3125 C2.81455548 6.94384191 2.81455548 6.94384191 4 10 C3.01 10 2.02 10 1 10 C0.67 10.66 0.34 11.32 0 12 C-0.33 10.35 -0.66 8.7 -1 7 C-0.34 7 0.32 7 1 7 C0.67 4.69 0.34 2.38 0 0 Z " fill="#F3F5DD" transform="translate(60,16)"/>
<path d="M0 0 C0.99 0 1.98 0 3 0 C7 4.22857143 7 4.22857143 7 8 C5.25 7.875 5.25 7.875 3 7 C0.75 3.9375 0.75 3.9375 -1 1 C-0.67 0.67 -0.34 0.34 0 0 Z " fill="#21518B" transform="translate(65,13)"/>
<path d="M0 0 C0.66 0 1.32 0 2 0 C3.03789581 1.64333504 4.03567924 3.31243867 5 5 C5.66 5.66 6.32 6.32 7 7 C5.68 7.33 4.36 7.66 3 8 C3 7.34 3 6.68 3 6 C1.35 6.33 -0.3 6.66 -2 7 C-1.34 6.67 -0.68 6.34 0 6 C0 4.02 0 2.04 0 0 Z " fill="#F4EEC9" transform="translate(52,80)"/>
<path d="M0 0 C0.33 0.99 0.66 1.98 1 3 C-1.06430358 5.94900512 -3.3929227 8.52327657 -6 11 C-6.99 10.34 -7.98 9.68 -9 9 C-7.6078125 7.88625 -7.6078125 7.88625 -6.1875 6.75 C-3.72873042 4.70974439 -1.78352451 2.67528677 0 0 Z " fill="#F5F3D1" transform="translate(74,52)"/>
<path d="M0 0 C1.32 0.99 2.64 1.98 4 3 C3.0409375 3.7425 3.0409375 3.7425 2.0625 4.5 C-0.81515269 7.98806387 -0.70230736 10.53461041 -1 15 C-1.33 15 -1.66 15 -2 15 C-3.38766322 8.94474232 -2.49118146 5.67989374 0 0 Z " fill="#D5DFE7" transform="translate(23,21)"/>
<path d="M0 0 C1.32 0.33 2.64 0.66 4 1 C4 2.65 4 4.3 4 6 C2.68 6.33 1.36 6.66 0 7 C0 4.69 0 2.38 0 0 Z " fill="#ECF4F1" transform="translate(71,77)"/>
<path d="M0 0 C3.96 0 7.92 0 12 0 C11.01 1.485 11.01 1.485 10 3 C6.5 3.125 6.5 3.125 3 3 C2.01 3.495 2.01 3.495 1 4 C0.34 3.34 -0.32 2.68 -1 2 C-0.67 1.34 -0.34 0.68 0 0 Z " fill="#DAE2EB" transform="translate(2,73)"/>
<path d="M0 0 C0.33 0 0.66 0 1 0 C1 4.29 1 8.58 1 13 C0.34 12.34 -0.32 11.68 -1 11 C-1.99 11.495 -1.99 11.495 -3 12 C-2.01 8.04 -1.02 4.08 0 0 Z " fill="#F6F0CC" transform="translate(78,40)"/>
<path d="M0 0 C0.99 0.33 1.98 0.66 3 1 C1.375 6.75 1.375 6.75 -2 9 C-2.6875 7.3125 -2.6875 7.3125 -3 5 C-1.5625 2.25 -1.5625 2.25 0 0 Z " fill="#385B8D" transform="translate(71,45)"/>
<path d="M0 0 C0.66 0 1.32 0 2 0 C2.33 2.97 2.66 5.94 3 9 C1.68 8.67 0.36 8.34 -1 8 C-0.67 5.36 -0.34 2.72 0 0 Z " fill="#E3E5D0" transform="translate(23,32)"/>
<path d="M0 0 C0.66 0 1.32 0 2 0 C2 3.63 2 7.26 2 11 C1.01 10.67 0.02 10.34 -1 10 C-0.67 6.7 -0.34 3.4 0 0 Z " fill="#F4C819" transform="translate(57,75)"/>
<path d="M0 0 C-0.55774272 3.23490776 -1.37211508 4.97855006 -4 7 C-4.99 7 -5.98 7 -7 7 C-3.86206897 0 -3.86206897 0 0 0 Z " fill="#225791" transform="translate(69,52)"/>
<path d="M0 0 C0.66 0 1.32 0 2 0 C2 2.31 2 4.62 2 7 C0.35 7 -1.3 7 -3 7 C-1.125 1.125 -1.125 1.125 0 0 Z " fill="#B5B495" transform="translate(30,32)"/>
<path d="M0 0 C1.98 1.32 3.96 2.64 6 4 C5.67 4.66 5.34 5.32 5 6 C2.6568787 5.74438677 0.32156597 5.40729228 -2 5 C-2.33 4.34 -2.66 3.68 -3 3 C-2.01 3 -1.02 3 0 3 C0 2.01 0 1.02 0 0 Z " fill="#F9F8E9" transform="translate(23,58)"/>
<path d="M0 0 C0.33 0 0.66 0 1 0 C1 1.65 1 3.3 1 5 C2.65 5 4.3 5 6 5 C6 5.66 6 6.32 6 7 C3.69 7 1.38 7 -1 7 C-1.625 4.625 -1.625 4.625 -2 2 C-1.34 1.34 -0.68 0.68 0 0 Z " fill="#9E9C91" transform="translate(47,53)"/>
<path d="M0 0 C0.99 0.33 1.98 0.66 3 1 C2.67 4.3 2.34 7.6 2 11 C1.34 11 0.68 11 0 11 C0 7.37 0 3.74 0 0 Z " fill="#29559C" transform="translate(73,28)"/>
<path d="M0 0 C0.25 2.3125 0.25 2.3125 0 5 C-2 6.8125 -2 6.8125 -4 8 C-4.99 7.34 -5.98 6.68 -7 6 C-6.01 5.67 -5.02 5.34 -4 5 C-3.6278958 3.67696283 -3.29369827 2.34262065 -3 1 C-1 0 -1 0 0 0 Z " fill="#365994" transform="translate(78,78)"/>
<path d="M0 0 C0.66 0.33 1.32 0.66 2 1 C2 2.65 2 4.3 2 6 C1.34 6 0.68 6 0 6 C0 8.64 0 11.28 0 14 C-0.33 14 -0.66 14 -1 14 C-1.02705729 12.22925083 -1.04642195 10.45838289 -1.0625 8.6875 C-1.07410156 7.70136719 -1.08570312 6.71523438 -1.09765625 5.69921875 C-1 3 -1 3 0 0 Z " fill="#DAB836" transform="translate(77,26)"/>
<path d="M0 0 C0.99 0 1.98 0 3 0 C2 3 2 3 -0.375 4.75 C-3 6 -3 6 -6 5 C-5.195625 4.360625 -4.39125 3.72125 -3.5625 3.0625 C-1.7249496 1.59396498 -1.7249496 1.59396498 0 0 Z " fill="#F0F5DD" transform="translate(57,41)"/>
<path d="M0 0 C3.465 1.485 3.465 1.485 7 3 C6.67 3.66 6.34 4.32 6 5 C2.7 4.34 -0.6 3.68 -4 3 C-2.68 2.67 -1.36 2.34 0 2 C0 1.34 0 0.68 0 0 Z " fill="#F8F4E8" transform="translate(55,0)"/>
<path d="M0 0 C1.125 1.625 1.125 1.625 2 4 C1.125 7.25 1.125 7.25 0 10 C-0.99 9.34 -1.98 8.68 -3 8 C-2.01 5.36 -1.02 2.72 0 0 Z " fill="#E1C02D" transform="translate(75,42)"/>
<path d="M0 0 C0.66 0.33 1.32 0.66 2 1 C1.071875 2.1446875 1.071875 2.1446875 0.125 3.3125 C-2.05597052 5.99625809 -2.05597052 5.99625809 -4 9 C-4.33 7.02 -4.66 5.04 -5 3 C-2.625 1.4375 -2.625 1.4375 0 0 Z " fill="#F1F5EF" transform="translate(50,47)"/>
<path d="M0 0 C1.98 0 3.96 0 6 0 C6.66 1.32 7.32 2.64 8 4 C6.02 3.34 4.04 2.68 2 2 C1.67 2.66 1.34 3.32 1 4 C0.67 2.68 0.34 1.36 0 0 Z " fill="#264C7F" transform="translate(69,75)"/>
<path d="M0 0 C4.75 0.75 4.75 0.75 7 3 C6.67 3.99 6.34 4.98 6 6 C3.97945196 4.35830472 1.97956942 2.69088222 0 1 C0 0.67 0 0.34 0 0 Z " fill="#1F4D93" transform="translate(25,55)"/>
<path d="M0 0 C-3.28463659 2.18975773 -6.20696275 2.99806563 -10 4 C-10 3.01 -10 2.02 -10 1 C-6.52674819 -0.1577506 -3.63932552 -0.06866652 0 0 Z " fill="#A4A894" transform="translate(63,15)"/>
<path d="M0 0 C0 0.99 0 1.98 0 3 C-5.75 2.25 -5.75 2.25 -8 0 C-5.13822943 -1.43088528 -3.06624227 -0.59991697 0 0 Z " fill="#F5CF48" transform="translate(40,64)"/>
<path d="M0 0 C0.33 1.32 0.66 2.64 1 4 C-2.01031744 4.93423645 -2.86650268 5.04449911 -6 4 C-2.25 0 -2.25 0 0 0 Z " fill="#EBF1F6" transform="translate(63,42)"/>
<path d="M0 0 C2.4375 0.8125 2.4375 0.8125 5 2 C5.33 2.99 5.66 3.98 6 5 C4.68 5 3.36 5 2 5 C2 4.01 2 3.02 2 2 C1.34 2 0.68 2 0 2 C0 1.34 0 0.68 0 0 Z " fill="#E7EFF2" transform="translate(32,42)"/>
<path d="M0 0 C0.66 0.33 1.32 0.66 2 1 C1.34 2.65 0.68 4.3 0 6 C-0.99 6 -1.98 6 -3 6 C-1.125 1.125 -1.125 1.125 0 0 Z " fill="#E6EBED" transform="translate(27,16)"/>
</svg>
