<?xml version="1.0" standalone="no"?>
<!DOCTYPE svg PUBLIC "-//W3C//DTD SVG 20010904//EN"
 "http://www.w3.org/TR/2001/REC-SVG-20010904/DTD/svg10.dtd">
<svg version="1.0" xmlns="http://www.w3.org/2000/svg"
 width="626.000000pt" height="626.000000pt" viewBox="0 0 626.000000 626.000000"
 preserveAspectRatio="xMidYMid meet">

<g transform="translate(0.000000,626.000000) scale(0.100000,-0.100000)"
fill="#000000" stroke="none">
<path d="M3007 4989 c-372 -39 -703 -157 -938 -334 -161 -121 -329 -319 -416
-489 -42 -83 -92 -222 -117 -324 -13 -53 -34 -124 -46 -156 -62 -169 -34 -464
55 -581 29 -39 65 -154 65 -209 0 -23 -9 -69 -21 -101 -25 -72 -22 -146 10
-221 l22 -51 -45 -73 c-83 -135 -94 -214 -36 -271 15 -15 48 -33 72 -39 35 -9
48 -19 63 -46 24 -45 77 -92 130 -115 30 -13 53 -36 89 -88 108 -158 310 -312
515 -392 240 -94 424 -124 766 -124 340 0 528 31 769 125 247 97 474 276 577
458 19 31 43 59 62 68 41 21 85 62 103 96 19 37 18 106 -4 148 l-17 35 53 74
c66 92 89 164 73 228 -7 25 -23 67 -36 94 l-25 48 33 20 c17 11 46 34 62 51
28 30 30 36 32 123 2 52 10 111 18 136 13 35 14 59 7 119 -5 42 -5 97 0 126
17 100 -7 196 -70 288 -25 37 -31 59 -41 148 -35 322 -160 610 -358 820 -211
225 -489 357 -852 405 -115 16 -424 18 -554 4z m554 -105 c464 -64 788 -281
973 -652 74 -148 129 -354 138 -522 l3 -55 -40 -13 c-124 -41 -577 -116 -895
-149 -221 -22 -956 -25 -1145 -5 -403 43 -667 106 -883 209 l-94 44 7 36 c30
162 134 398 232 528 254 335 674 544 1188 588 120 11 414 6 516 -9z m-1874
-1241 l82 -38 1 -50 c0 -64 31 -119 90 -160 36 -25 46 -39 51 -69 6 -37 46
-88 84 -108 13 -7 9 1 -12 23 -36 38 -53 77 -53 119 0 23 -9 35 -45 60 -53 37
-75 74 -75 129 l0 40 83 -28 c45 -15 107 -34 137 -41 30 -7 60 -17 67 -22 6
-5 15 -33 18 -63 7 -55 36 -115 56 -115 8 0 8 5 -1 15 -16 20 -30 156 -15 147
5 -3 35 -24 65 -47 95 -72 251 -171 345 -218 107 -54 181 -77 247 -77 55 0
191 41 327 100 52 22 96 40 98 40 2 0 1 -12 -3 -27 -11 -50 -54 -104 -97 -124
-42 -19 -42 -19 -11 -19 63 0 136 74 149 151 7 40 7 40 128 97 l122 58 199 17
c110 9 201 15 204 13 8 -9 -17 -40 -53 -65 -24 -17 -42 -40 -51 -66 -22 -67
-55 -78 -148 -50 -27 8 -61 15 -76 15 -27 0 -70 -32 -70 -52 0 -6 9 -3 20 7
25 23 50 22 133 -4 103 -31 150 -13 177 72 6 20 21 42 33 48 12 6 42 33 67 61
l45 49 129 20 c71 10 196 33 278 49 81 17 153 30 158 30 14 0 32 -78 24 -103
-4 -12 -17 -38 -30 -57 -19 -27 -24 -48 -24 -93 0 -58 -1 -60 -50 -106 -63
-60 -65 -82 -2 -36 26 19 55 41 66 48 14 10 20 31 25 83 5 50 13 78 28 98 31
38 37 83 20 134 -17 47 -16 47 36 57 43 8 50 3 94 -80 24 -44 27 -59 24 -125
-5 -96 -5 -119 -1 -207 3 -59 0 -76 -15 -93 -10 -11 -25 -20 -33 -20 -32 0
-73 -36 -97 -88 -22 -47 -32 -56 -80 -78 -31 -13 -67 -24 -80 -24 -14 0 -25
-4 -25 -10 0 -16 81 -11 130 8 29 12 52 29 65 50 52 84 62 97 79 100 26 5 36
-15 36 -74 0 -55 -9 -69 -68 -98 -46 -23 -124 -37 -217 -37 -67 0 -99 6 -185
36 -70 24 -115 34 -135 30 -16 -3 -70 -30 -120 -60 -171 -103 -216 -106 -309
-19 -32 30 -60 53 -62 51 -2 -2 8 -20 21 -40 14 -20 25 -38 25 -40 0 -2 -31 4
-69 14 -96 24 -217 40 -249 33 -15 -4 -79 -28 -142 -54 -63 -26 -126 -51 -138
-55 l-24 -7 21 21 c23 23 35 60 29 88 -3 14 -9 9 -24 -20 -14 -27 -34 -44 -70
-61 l-50 -23 -54 39 c-253 178 -252 178 -382 178 -151 0 -169 7 -264 105 -44
46 -96 90 -116 98 -20 8 -45 30 -57 51 -29 46 -35 46 -16 -1 8 -21 27 -47 41
-58 40 -30 143 -139 139 -146 -6 -10 -146 1 -207 16 -80 20 -148 57 -189 102
l-35 38 -86 0 c-72 0 -91 4 -115 21 -35 25 -58 71 -77 151 l-14 63 36 -6 c25
-4 43 0 57 10 19 15 19 15 -10 10 -22 -4 -38 0 -58 16 -25 20 -27 27 -27 98 0
70 25 192 39 192 3 0 43 -17 88 -37z m668 -183 c170 -27 390 -42 689 -48 l329
-7 -153 -68 c-207 -91 -351 -140 -415 -139 -90 1 -277 88 -452 212 -95 66 -95
66 2 50z m-481 -437 c77 -70 213 -113 362 -113 60 0 94 -5 125 -20 48 -21 74
-26 64 -10 -8 13 -10 13 49 -5 27 -8 81 -15 121 -15 68 0 74 -2 148 -50 42
-28 79 -56 83 -62 4 -6 -5 -22 -20 -35 -42 -36 -89 -31 -172 20 -64 39 -74 42
-139 42 -38 0 -102 -4 -140 -9 l-70 -8 -43 35 c-48 41 -65 45 -209 50 -94 4
-106 6 -145 33 -45 32 -198 172 -198 183 0 3 32 4 72 3 67 -4 76 -7 112 -39z
m-104 -188 c25 -95 39 -119 83 -141 17 -9 48 -30 67 -45 19 -16 44 -29 56 -29
12 0 42 -9 68 -20 34 -16 51 -18 64 -11 15 9 14 10 -8 11 -14 0 -43 12 -65 25
-22 14 -47 25 -56 25 -8 0 -26 12 -40 26 -13 14 -43 37 -66 51 -34 20 -45 33
-53 66 -6 23 -14 51 -17 61 -4 16 2 14 34 -12 55 -44 83 -52 171 -53 115 0
170 -12 199 -42 l26 -25 -22 -27 c-28 -37 -27 -58 9 -122 24 -42 32 -69 34
-119 3 -79 18 -96 99 -117 69 -17 73 -1 6 22 -68 24 -69 25 -69 101 0 60 -4
76 -30 117 -34 53 -36 69 -15 99 11 16 29 22 82 28 37 3 89 9 116 12 57 8 61
-6 22 -64 -37 -55 -33 -95 14 -143 29 -30 41 -52 45 -84 14 -92 92 -156 191
-154 l50 0 -46 13 c-99 27 -143 69 -159 156 -8 43 -18 62 -45 87 -42 38 -44
65 -10 115 14 20 25 46 25 57 0 29 8 27 81 -21 47 -31 77 -43 114 -46 49 -4
51 -6 71 -51 15 -34 38 -60 80 -92 l59 -45 6 -64 c5 -55 10 -67 37 -89 82 -70
153 -96 192 -71 11 7 4 10 -27 10 -32 0 -51 7 -75 28 -18 15 -45 36 -60 45
-25 16 -28 23 -28 76 0 68 -20 99 -95 151 -28 19 -48 44 -59 70 l-16 40 33 30
c17 16 35 30 39 30 4 0 29 -14 55 -30 28 -17 73 -34 105 -39 30 -5 89 -26 129
-47 108 -54 226 -103 275 -114 35 -8 62 -5 153 18 108 27 111 27 105 7 -17
-53 -25 -63 -64 -79 -22 -9 -60 -36 -83 -61 -36 -39 -50 -47 -95 -54 -52 -8
-85 -29 -104 -66 -8 -15 -3 -13 20 8 20 20 44 30 73 33 76 9 88 13 126 52 20
20 60 48 87 62 40 19 53 32 60 57 17 64 52 88 173 122 61 17 114 31 117 31 11
0 6 -56 -7 -74 -7 -10 -33 -28 -57 -40 -24 -12 -46 -28 -48 -36 -4 -12 -2 -13
9 -3 8 6 33 16 56 22 46 12 83 51 83 85 0 29 48 74 87 82 28 6 32 4 38 -24 3
-17 20 -49 36 -71 55 -77 34 -122 -66 -136 -74 -11 -109 -28 -141 -71 -15 -22
-49 -62 -75 -90 -26 -27 -54 -64 -62 -81 -12 -22 -27 -33 -59 -42 -131 -34
-190 -38 -342 -20 -87 10 -98 9 -189 -16 -98 -27 -119 -27 -217 -3 -33 8 -60
26 -102 67 -65 62 -73 58 -28 -12 l30 -47 -29 0 c-43 0 -196 28 -225 41 l-26
12 21 34 c23 36 10 47 -14 10 -20 -30 -116 -51 -205 -44 -50 3 -87 14 -145 42
-57 27 -98 40 -146 44 -78 7 -118 29 -127 69 -15 67 -17 69 -28 29 l-11 -38
-72 36 c-89 45 -172 118 -204 182 -13 26 -30 56 -38 66 -16 20 -12 20 48 6 26
-6 60 -24 82 -44 27 -24 53 -36 95 -45 33 -6 76 -20 96 -31 38 -20 78 -27 43
-7 -11 6 -29 19 -41 29 -11 11 -47 26 -80 35 -40 10 -70 26 -94 49 -39 38 -64
49 -131 59 -37 5 -48 12 -53 29 -10 39 -6 75 14 127 12 31 20 74 20 113 0 61
0 61 19 42 11 -11 29 -56 41 -100z m2500 -44 l75 -29 -100 -30 c-198 -61 -473
-141 -614 -178 l-144 -38 -68 24 c-38 13 -112 44 -165 69 l-96 46 109 50 c102
47 112 50 183 48 49 -1 132 -16 239 -43 161 -40 165 -40 215 -26 29 9 96 42
151 75 55 34 109 60 120 60 11 0 54 -13 95 -28z m374 -97 c46 -78 57 -144 32
-192 -9 -18 -23 -32 -32 -32 -30 0 -94 -41 -109 -70 -21 -40 -19 -47 8 -23 25
23 67 47 72 41 2 -2 -13 -24 -34 -48 -21 -25 -41 -59 -45 -77 -9 -40 -48 -79
-86 -87 -34 -6 -100 -1 -176 16 -50 10 -53 10 -91 -21 -60 -48 -131 -71 -218
-71 -41 0 -75 4 -75 9 0 5 29 41 65 81 35 39 67 80 70 91 9 26 49 45 124 59
73 13 103 30 119 66 19 40 14 64 -22 118 -32 47 -56 106 -43 106 3 0 58 16
122 35 l116 35 45 -19 c29 -13 44 -26 44 -38 0 -10 -25 -43 -55 -73 -41 -40
-55 -62 -55 -82 0 -47 -28 -101 -73 -141 -37 -32 -38 -36 -15 -27 69 24 111
73 124 145 5 31 19 52 60 90 67 63 73 101 23 137 l-31 23 44 6 c23 3 45 7 48
7 3 1 23 -28 44 -64z m-2873 -307 c57 -57 93 -83 154 -111 44 -21 91 -44 105
-52 75 -42 109 -54 154 -54 36 0 73 -11 139 -41 101 -47 192 -60 272 -40 36 9
51 9 73 -3 40 -20 162 -44 292 -57 226 -23 254 -22 336 2 73 22 80 22 199 9
129 -13 188 -10 290 17 33 8 111 16 175 17 123 2 176 18 246 71 27 20 36 22
70 15 21 -5 74 -10 117 -10 88 0 142 20 172 66 13 21 19 24 26 13 16 -25 9
-65 -14 -87 -24 -22 -97 -52 -128 -52 -11 0 -32 -21 -53 -54 -48 -76 -78 -84
-192 -56 -47 12 -96 19 -108 16 -13 -3 -42 -26 -65 -51 -89 -96 -143 -107
-254 -49 -85 44 -144 49 -185 15 -15 -12 -47 -35 -71 -51 -79 -52 -163 -37
-265 49 -71 60 -86 62 -181 13 -103 -53 -108 -54 -193 -42 -88 12 -167 41
-233 86 -28 19 -56 34 -63 34 -6 0 -37 -14 -69 -30 -109 -55 -166 -49 -260 29
-68 56 -100 64 -236 59 -142 -6 -196 7 -240 57 -17 20 -33 48 -37 63 -11 51
-12 52 -59 52 -67 0 -89 14 -81 53 5 23 85 176 92 177 1 0 35 -33 75 -73z
m352 -383 c33 -5 59 -18 94 -47 26 -22 72 -51 101 -64 65 -30 125 -25 210 18
48 24 59 26 72 15 39 -35 170 -87 252 -101 99 -16 145 -9 233 36 l84 43 61
-48 c83 -65 149 -90 218 -82 63 7 93 21 151 70 24 20 51 36 60 36 10 0 54 -18
99 -40 128 -63 210 -49 303 53 l48 51 65 -17 c73 -19 142 -22 183 -6 43 16
-105 -130 -195 -192 -298 -206 -773 -298 -1261 -244 -354 40 -615 147 -815
335 -49 46 -136 157 -136 174 0 3 21 7 48 9 26 2 54 4 63 5 9 1 37 -1 62 -4z"/>
<path d="M4228 3422 c-1 -4 -24 -25 -50 -47 -52 -43 -55 -54 -8 -35 30 12 80
63 80 81 0 11 -17 12 -22 1z"/>
<path d="M4395 3379 c-30 -27 -35 -37 -35 -75 0 -51 -11 -59 -97 -75 -72 -13
-101 -30 -135 -80 -21 -29 -35 -39 -55 -39 -16 0 -34 -4 -42 -9 -8 -5 5 -7 35
-4 41 4 55 12 85 43 35 37 53 45 156 70 58 14 73 33 73 87 0 39 5 50 36 79 45
43 27 45 -21 3z"/>
<path d="M1740 3279 c0 -26 8 -44 27 -63 14 -14 28 -25 30 -23 2 2 -10 30 -27
63 l-30 59 0 -36z"/>
<path d="M2310 3195 c0 -17 24 -46 48 -59 16 -8 57 -18 93 -22 55 -6 69 -12
98 -41 19 -19 43 -40 55 -48 24 -17 122 -20 131 -4 5 7 -3 10 -21 8 -61 -5
-77 2 -129 55 -56 56 -81 66 -165 66 -38 0 -55 6 -79 26 -17 14 -31 23 -31 19z"/>
<path d="M4545 3056 c-27 -13 -65 -38 -83 -55 -26 -24 -43 -31 -75 -32 -23 0
-60 -6 -82 -14 l-40 -13 55 -3 c103 -6 120 -2 165 40 23 21 61 51 84 66 64 43
54 47 -24 11z"/>
<path d="M3275 3031 c-22 -10 -49 -28 -60 -41 -11 -12 -32 -28 -47 -36 -24
-13 -33 -12 -80 6 -67 25 -83 25 -138 -5 -50 -27 -43 -31 24 -13 38 10 49 9
94 -10 74 -32 94 -29 155 26 29 26 63 54 77 63 37 25 21 31 -25 10z"/>
<path d="M3495 3020 c3 -5 13 -10 22 -10 8 0 41 -16 73 -35 67 -41 106 -44
178 -16 45 18 52 18 78 5 16 -9 36 -22 45 -30 26 -24 76 -37 96 -25 16 9 15
10 -8 11 -14 0 -47 16 -72 35 -68 52 -86 57 -137 34 -77 -34 -110 -35 -171 -1
-59 32 -115 50 -104 32z"/>
<path d="M2734 2475 c-7 -18 3 -35 21 -35 18 0 26 25 12 39 -15 15 -27 14 -33
-4z"/>
<path d="M3240 2435 c-19 -22 0 -37 41 -33 26 2 34 8 34 23 0 26 -55 34 -75
10z"/>
<path d="M2160 2320 c0 -16 5 -21 23 -18 12 2 22 10 22 18 0 8 -10 16 -22 18
-18 3 -23 -2 -23 -18z"/>
<path d="M3699 2256 c-25 -17 -55 -37 -65 -43 -32 -21 35 -4 73 18 26 16 50
48 41 54 -2 1 -24 -12 -49 -29z"/>
</g>
</svg>
